<svg width="1440" height="900" viewBox="0 0 1440 900" fill="none" xmlns="http://www.w3.org/2000/svg">
  <rect width="1440" height="900" fill="#07111f"/>
  <rect x="28" y="28" width="238" height="844" rx="24" fill="#06111f" stroke="#17304d"/>
  <rect x="58" y="58" width="64" height="64" rx="18" fill="#0f1b2d" stroke="#1d3d5f"/>
  <circle cx="90" cy="90" r="20" fill="#27c7d8"/>
  <rect x="58" y="156" width="176" height="42" rx="12" fill="url(#g1)"/>
  <rect x="58" y="214" width="160" height="16" rx="8" fill="#8fb2cf" opacity=".42"/>
  <rect x="58" y="254" width="152" height="16" rx="8" fill="#8fb2cf" opacity=".30"/>
  <rect x="58" y="294" width="170" height="16" rx="8" fill="#8fb2cf" opacity=".30"/>
  <rect x="58" y="334" width="126" height="16" rx="8" fill="#8fb2cf" opacity=".30"/>
  <rect x="300" y="28" width="1112" height="844" rx="24" fill="#0f1b2d" stroke="#223c5d"/>
  <text x="344" y="91" fill="#f8fafc" font-family="Segoe UI, Arial" font-size="34" font-weight="800">Painel Fiscal</text>
  <text x="344" y="126" fill="#a8b8ca" font-family="Segoe UI, Arial" font-size="18">Visao executiva por empresa, competencia e risco fiscal.</text>
  <rect x="1110" y="64" width="246" height="46" rx="14" fill="#142238" stroke="#2d4b6d"/>
  <text x="1132" y="94" fill="#dbeafe" font-family="Segoe UI, Arial" font-size="16" font-weight="700">Comercial Demo LTDA</text>
  <g>
    <rect x="344" y="168" width="232" height="134" rx="18" fill="#142238" stroke="#2d4b6d"/>
    <text x="370" y="206" fill="#a8b8ca" font-family="Segoe UI, Arial" font-size="14" font-weight="700">Entradas</text>
    <text x="370" y="250" fill="#f8fafc" font-family="Segoe UI, Arial" font-size="30" font-weight="800">R$ 824 mil</text>
    <text x="370" y="278" fill="#4ade80" font-family="Segoe UI, Arial" font-size="15">+12% no periodo</text>
  </g>
  <g>
    <rect x="604" y="168" width="232" height="134" rx="18" fill="#142238" stroke="#2d4b6d"/>
    <text x="630" y="206" fill="#a8b8ca" font-family="Segoe UI, Arial" font-size="14" font-weight="700">Saidas</text>
    <text x="630" y="250" fill="#f8fafc" font-family="Segoe UI, Arial" font-size="30" font-weight="800">R$ 1,12 mi</text>
    <text x="630" y="278" fill="#27c7d8" font-family="Segoe UI, Arial" font-size="15">1.846 documentos</text>
  </g>
  <g>
    <rect x="864" y="168" width="232" height="134" rx="18" fill="#142238" stroke="#2d4b6d"/>
    <text x="890" y="206" fill="#a8b8ca" font-family="Segoe UI, Arial" font-size="14" font-weight="700">Alertas abertos</text>
    <text x="890" y="250" fill="#fb7185" font-family="Segoe UI, Arial" font-size="30" font-weight="800">18</text>
    <text x="890" y="278" fill="#fbbf24" font-family="Segoe UI, Arial" font-size="15">5 de risco alto</text>
  </g>
  <g>
    <rect x="1124" y="168" width="232" height="134" rx="18" fill="#142238" stroke="#2d4b6d"/>
    <text x="1150" y="206" fill="#a8b8ca" font-family="Segoe UI, Arial" font-size="14" font-weight="700">Empresas ativas</text>
    <text x="1150" y="250" fill="#f8fafc" font-family="Segoe UI, Arial" font-size="30" font-weight="800">42</text>
    <text x="1150" y="278" fill="#a8b8ca" font-family="Segoe UI, Arial" font-size="15">no escritorio</text>
  </g>
  <rect x="344" y="338" width="650" height="302" rx="20" fill="#142238" stroke="#2d4b6d"/>
  <text x="374" y="382" fill="#f8fafc" font-family="Segoe UI, Arial" font-size="20" font-weight="800">Entradas x Saidas</text>
  <line x1="392" y1="578" x2="938" y2="578" stroke="#2d4b6d"/>
  <line x1="392" y1="508" x2="938" y2="508" stroke="#2d4b6d" opacity=".7"/>
  <line x1="392" y1="438" x2="938" y2="438" stroke="#2d4b6d" opacity=".7"/>
  <rect x="420" y="466" width="28" height="112" rx="8" fill="#27c7d8"/>
  <rect x="454" y="426" width="28" height="152" rx="8" fill="#4ade80"/>
  <rect x="528" y="492" width="28" height="86" rx="8" fill="#27c7d8"/>
  <rect x="562" y="458" width="28" height="120" rx="8" fill="#4ade80"/>
  <rect x="636" y="420" width="28" height="158" rx="8" fill="#27c7d8"/>
  <rect x="670" y="390" width="28" height="188" rx="8" fill="#4ade80"/>
  <rect x="744" y="478" width="28" height="100" rx="8" fill="#27c7d8"/>
  <rect x="778" y="444" width="28" height="134" rx="8" fill="#4ade80"/>
  <rect x="852" y="450" width="28" height="128" rx="8" fill="#27c7d8"/>
  <rect x="886" y="406" width="28" height="172" rx="8" fill="#4ade80"/>
  <rect x="1026" y="338" width="330" height="302" rx="20" fill="#142238" stroke="#2d4b6d"/>
  <text x="1056" y="382" fill="#f8fafc" font-family="Segoe UI, Arial" font-size="20" font-weight="800">Alertas recentes</text>
  <rect x="1056" y="414" width="270" height="48" rx="12" fill="#fb718522" stroke="#fb718555"/>
  <rect x="1056" y="478" width="246" height="48" rx="12" fill="#fbbf2422" stroke="#fbbf2455"/>
  <rect x="1056" y="542" width="286" height="48" rx="12" fill="#27c7d822" stroke="#27c7d855"/>
  <text x="1076" y="444" fill="#f8fafc" font-family="Segoe UI, Arial" font-size="15">Uso e consumo com credito</text>
  <text x="1076" y="508" fill="#f8fafc" font-family="Segoe UI, Arial" font-size="15">CFOP divergente</text>
  <text x="1076" y="572" fill="#f8fafc" font-family="Segoe UI, Arial" font-size="15">Beneficio fiscal sem cBenef</text>
  <rect x="344" y="676" width="1012" height="144" rx="20" fill="#142238" stroke="#2d4b6d"/>
  <text x="374" y="718" fill="#f8fafc" font-family="Segoe UI, Arial" font-size="20" font-weight="800">Top produtos e CFOPs</text>
  <rect x="374" y="750" width="250" height="18" rx="9" fill="#8fb2cf" opacity=".35"/>
  <rect x="374" y="786" width="420" height="18" rx="9" fill="#8fb2cf" opacity=".22"/>
  <rect x="862" y="750" width="360" height="18" rx="9" fill="#8fb2cf" opacity=".35"/>
  <rect x="862" y="786" width="260" height="18" rx="9" fill="#8fb2cf" opacity=".22"/>
  <defs>
    <linearGradient id="g1" x1="58" y1="156" x2="234" y2="198" gradientUnits="userSpaceOnUse">
      <stop stop-color="#0b67c2"/>
      <stop offset="1" stop-color="#00a7b5"/>
    </linearGradient>
  </defs>
</svg>
