<svg width="1200" height="760" viewBox="0 0 1200 760" fill="none" xmlns="http://www.w3.org/2000/svg">
  <rect width="1200" height="760" rx="28" fill="#0f1b2d"/>
  <rect x="34" y="34" width="1132" height="692" rx="24" fill="#142238" stroke="#2d4b6d"/>
  <text x="72" y="92" fill="#f8fafc" font-family="Segoe UI, Arial" font-size="30" font-weight="800">Simples Nacional</text>
  <text x="72" y="126" fill="#a8b8ca" font-family="Segoe UI, Arial" font-size="17">PGDAS-D, apuracao do sistema e confronto por competencia.</text>
  <rect x="72" y="164" width="210" height="48" rx="14" fill="#27c7d8"/>
  <text x="98" y="195" fill="#06111f" font-family="Segoe UI, Arial" font-size="16" font-weight="800">Apuracao sistema</text>
  <rect x="300" y="164" width="164" height="48" rx="14" fill="#0f1b2d" stroke="#2d4b6d"/>
  <text x="326" y="195" fill="#dbeafe" font-family="Segoe UI, Arial" font-size="16" font-weight="700">PGDAS-D</text>
  <rect x="482" y="164" width="152" height="48" rx="14" fill="#0f1b2d" stroke="#2d4b6d"/>
  <text x="508" y="195" fill="#dbeafe" font-family="Segoe UI, Arial" font-size="16" font-weight="700">Confronto</text>
  <rect x="72" y="250" width="236" height="128" rx="18" fill="#0f1b2d" stroke="#2d4b6d"/>
  <text x="98" y="288" fill="#a8b8ca" font-family="Segoe UI, Arial" font-size="14" font-weight="800">Receita liquida</text>
  <text x="98" y="334" fill="#f8fafc" font-family="Segoe UI, Arial" font-size="30" font-weight="800">R$ 286 mil</text>
  <rect x="332" y="250" width="236" height="128" rx="18" fill="#0f1b2d" stroke="#2d4b6d"/>
  <text x="358" y="288" fill="#a8b8ca" font-family="Segoe UI, Arial" font-size="14" font-weight="800">RBT12</text>
  <text x="358" y="334" fill="#f8fafc" font-family="Segoe UI, Arial" font-size="30" font-weight="800">R$ 2,9 mi</text>
  <rect x="592" y="250" width="236" height="128" rx="18" fill="#0f1b2d" stroke="#2d4b6d"/>
  <text x="618" y="288" fill="#a8b8ca" font-family="Segoe UI, Arial" font-size="14" font-weight="800">DAS calculado</text>
  <text x="618" y="334" fill="#27c7d8" font-family="Segoe UI, Arial" font-size="30" font-weight="800">R$ 18.420</text>
  <rect x="852" y="250" width="236" height="128" rx="18" fill="#0f1b2d" stroke="#2d4b6d"/>
  <text x="878" y="288" fill="#a8b8ca" font-family="Segoe UI, Arial" font-size="14" font-weight="800">Divergencia</text>
  <text x="878" y="334" fill="#fbbf24" font-family="Segoe UI, Arial" font-size="30" font-weight="800">R$ 1.260</text>
  <rect x="72" y="420" width="1016" height="244" rx="18" fill="#0f1b2d" stroke="#2d4b6d"/>
  <text x="104" y="464" fill="#f8fafc" font-family="Segoe UI, Arial" font-size="20" font-weight="800">Extrato da apuracao por anexo</text>
  <rect x="104" y="500" width="940" height="46" rx="12" fill="#1c2c45"/>
  <rect x="104" y="570" width="760" height="46" rx="12" fill="#1c2c45"/>
  <rect x="104" y="500" width="640" height="46" rx="12" fill="#27c7d833"/>
  <rect x="104" y="570" width="430" height="46" rx="12" fill="#4ade8033"/>
  <text x="126" y="530" fill="#dbeafe" font-family="Segoe UI, Arial" font-size="15" font-weight="700">Anexo I - Comercio</text>
  <text x="126" y="600" fill="#dbeafe" font-family="Segoe UI, Arial" font-size="15" font-weight="700">Anexo III - Servicos</text>
  <text x="880" y="530" fill="#dbeafe" font-family="Segoe UI, Arial" font-size="15" font-weight="700">R$ 14.880</text>
  <text x="880" y="600" fill="#dbeafe" font-family="Segoe UI, Arial" font-size="15" font-weight="700">R$ 3.540</text>
</svg>
